<svg xmlns="http://www.w3.org/2000/svg" width="1600" height="960" viewBox="0 0 1600 960">
  <defs>
    <linearGradient id="bg" x1="0" y1="0" x2="1" y2="1">
      <stop offset="0" stop-color="#f8fafc"/>
      <stop offset="1" stop-color="#eef2ff"/>
    </linearGradient>
    <linearGradient id="accent" x1="0" y1="0" x2="1" y2="0">
      <stop offset="0" stop-color="#4f46e5"/>
      <stop offset="1" stop-color="#7c3aed"/>
    </linearGradient>
    <filter id="shadow" x="-20%" y="-20%" width="140%" height="140%">
      <feDropShadow dx="0" dy="10" stdDeviation="18" flood-color="#0f172a" flood-opacity="0.14"/>
    </filter>
  </defs>

  <rect x="0" y="0" width="1600" height="960" fill="url(#bg)"/>

  <!-- Frame -->
  <rect x="110" y="86" width="1380" height="788" rx="22" fill="#ffffff" filter="url(#shadow)"/>
  <rect x="110" y="86" width="1380" height="788" rx="22" fill="none" stroke="#e5e7eb" stroke-width="2"/>

  <!-- Header -->
  <rect x="110" y="86" width="1380" height="112" rx="22" fill="#ffffff"/>
  <rect x="110" y="198" width="1380" height="1" fill="#e5e7eb"/>
  <rect x="150" y="122" width="10" height="10" rx="2" fill="#4f46e5"/>
  <text x="170" y="132" font-family="ui-sans-serif, system-ui, -apple-system, Segoe UI, Roboto, Arial" font-size="18" fill="#4338ca" font-weight="700" letter-spacing="2">SANITIZED LIVE DEMO</text>
  <text x="150" y="168" font-family="ui-sans-serif, system-ui, -apple-system, Segoe UI, Roboto, Arial" font-size="30" fill="#111827" font-weight="700">BizDev Command Center</text>

  <!-- Tabs -->
  <g font-family="ui-sans-serif, system-ui, -apple-system, Segoe UI, Roboto, Arial" font-size="14" font-weight="600">
    <rect x="980" y="124" width="128" height="34" rx="10" fill="#e0e7ff"/>
    <text x="1006" y="146" fill="#4338ca">Pipeline</text>
    <text x="1126" y="146" fill="#6b7280">Contacts</text>
    <text x="1208" y="146" fill="#6b7280">Events</text>
    <text x="1280" y="146" fill="#6b7280">VIPs</text>
  </g>

  <!-- Metrics row -->
  <g>
    <rect x="150" y="236" width="320" height="110" rx="18" fill="#f8fafc" stroke="#e5e7eb"/>
    <rect x="490" y="236" width="320" height="110" rx="18" fill="#f8fafc" stroke="#e5e7eb"/>
    <rect x="830" y="236" width="320" height="110" rx="18" fill="#f8fafc" stroke="#e5e7eb"/>
    <rect x="1170" y="236" width="320" height="110" rx="18" fill="#f8fafc" stroke="#e5e7eb"/>

    <text x="176" y="270" font-family="ui-sans-serif, system-ui, -apple-system, Segoe UI, Roboto, Arial" font-size="12" fill="#64748b" font-weight="700" letter-spacing="1.2">ACTIVE CONTACTS</text>
    <text x="176" y="312" font-family="ui-sans-serif, system-ui, -apple-system, Segoe UI, Roboto, Arial" font-size="34" fill="#111827" font-weight="800">6</text>

    <text x="516" y="270" font-family="ui-sans-serif, system-ui, -apple-system, Segoe UI, Roboto, Arial" font-size="12" fill="#64748b" font-weight="700" letter-spacing="1.2">DUE THIS WEEK</text>
    <text x="516" y="312" font-family="ui-sans-serif, system-ui, -apple-system, Segoe UI, Roboto, Arial" font-size="34" fill="#111827" font-weight="800">3</text>

    <text x="856" y="270" font-family="ui-sans-serif, system-ui, -apple-system, Segoe UI, Roboto, Arial" font-size="12" fill="#64748b" font-weight="700" letter-spacing="1.2">OVERDUE</text>
    <text x="856" y="312" font-family="ui-sans-serif, system-ui, -apple-system, Segoe UI, Roboto, Arial" font-size="34" fill="#111827" font-weight="800">1</text>

    <text x="1196" y="270" font-family="ui-sans-serif, system-ui, -apple-system, Segoe UI, Roboto, Arial" font-size="12" fill="#64748b" font-weight="700" letter-spacing="1.2">MAINTAINING</text>
    <text x="1196" y="312" font-family="ui-sans-serif, system-ui, -apple-system, Segoe UI, Roboto, Arial" font-size="34" fill="#111827" font-weight="800">2</text>
  </g>

  <!-- Table Card -->
  <rect x="150" y="374" width="1340" height="450" rx="22" fill="#ffffff" stroke="#e5e7eb"/>
  <rect x="150" y="374" width="1340" height="68" rx="22" fill="#ffffff"/>
  <rect x="150" y="442" width="1340" height="1" fill="#e5e7eb"/>

  <text x="176" y="414" font-family="ui-sans-serif, system-ui, -apple-system, Segoe UI, Roboto, Arial" font-size="18" fill="#111827" font-weight="800">Active Pipeline</text>
  <text x="176" y="438" font-family="ui-sans-serif, system-ui, -apple-system, Segoe UI, Roboto, Arial" font-size="12" fill="#64748b" font-weight="600">Editable relationship pipeline snapshot</text>

  <!-- Row 1 -->
  <g>
    <rect x="176" y="474" width="410" height="120" rx="18" fill="#ffffff"/>
    <text x="176" y="506" font-family="ui-sans-serif, system-ui, -apple-system, Segoe UI, Roboto, Arial" font-size="18" fill="#111827" font-weight="800">VIP Operator</text>
    <text x="176" y="532" font-family="ui-sans-serif, system-ui, -apple-system, Segoe UI, Roboto, Arial" font-size="14" fill="#64748b" font-weight="600">Portfolio Advisory</text>
    <text x="176" y="556" font-family="ui-sans-serif, system-ui, -apple-system, Segoe UI, Roboto, Arial" font-size="12" fill="#94a3b8" font-weight="700">Last action: Apr 12, 2026</text>

    <rect x="610" y="490" width="230" height="40" rx="14" fill="#ffffff" stroke="#d1d5db"/>
    <text x="628" y="516" font-family="ui-sans-serif, system-ui, -apple-system, Segoe UI, Roboto, Arial" font-size="14" fill="#111827" font-weight="650">Maintaining…</text>

    <rect x="860" y="474" width="430" height="120" rx="18" fill="#ffffff" stroke="#d1d5db"/>
    <text x="878" y="508" font-family="ui-sans-serif, system-ui, -apple-system, Segoe UI, Roboto, Arial" font-size="13" fill="#111827" font-weight="600">High-leverage event partner; best conversations stay grounded.</text>

    <rect x="1310" y="474" width="160" height="120" rx="18" fill="#ffffff" stroke="#d1d5db"/>
    <rect x="1326" y="506" width="128" height="18" rx="9" fill="#eef2ff"/>
    <rect x="1326" y="542" width="128" height="18" rx="9" fill="#eef2ff"/>
    <text x="1326" y="498" font-family="ui-sans-serif, system-ui, -apple-system, Segoe UI, Roboto, Arial" font-size="11" fill="#64748b" font-weight="800" letter-spacing="1.1">NEXT ACTION</text>
    <text x="1326" y="534" font-family="ui-sans-serif, system-ui, -apple-system, Segoe UI, Roboto, Arial" font-size="11" fill="#64748b" font-weight="800" letter-spacing="1.1">LAST ACTION</text>
  </g>

  <!-- Row divider -->
  <rect x="176" y="616" width="1288" height="1" fill="#eef2f7"/>

  <!-- Row 2 -->
  <g>
    <text x="176" y="666" font-family="ui-sans-serif, system-ui, -apple-system, Segoe UI, Roboto, Arial" font-size="18" fill="#111827" font-weight="800">Target Guest</text>
    <text x="176" y="692" font-family="ui-sans-serif, system-ui, -apple-system, Segoe UI, Roboto, Arial" font-size="14" fill="#64748b" font-weight="600">ApertureFlow</text>
    <text x="176" y="716" font-family="ui-sans-serif, system-ui, -apple-system, Segoe UI, Roboto, Arial" font-size="12" fill="#94a3b8" font-weight="700">Last action: Apr 18, 2026</text>

    <rect x="610" y="650" width="230" height="40" rx="14" fill="#ffffff" stroke="#d1d5db"/>
    <text x="628" y="676" font-family="ui-sans-serif, system-ui, -apple-system, Segoe UI, Roboto, Arial" font-size="14" fill="#111827" font-weight="650">Initial Outreach</text>

    <rect x="860" y="634" width="430" height="120" rx="18" fill="#ffffff" stroke="#d1d5db"/>
    <text x="878" y="668" font-family="ui-sans-serif, system-ui, -apple-system, Segoe UI, Roboto, Arial" font-size="13" fill="#111827" font-weight="600">Good target guest for an AI systems breakfast.</text>

    <rect x="1310" y="634" width="160" height="120" rx="18" fill="#ffffff" stroke="#d1d5db"/>
    <rect x="1326" y="666" width="128" height="18" rx="9" fill="#eef2ff"/>
    <rect x="1326" y="702" width="128" height="18" rx="9" fill="#eef2ff"/>
  </g>

  <!-- Accent line -->
  <rect x="150" y="374" width="6" height="450" fill="url(#accent)"/>
</svg>

